<svg width="45" height="45" viewBox="0 0 45 45" fill="none" xmlns="http://www.w3.org/2000/svg">
<path d="M30 15.0001V24.3751C30 25.8669 30.5927 27.2976 31.6475 28.3525C32.7024 29.4074 34.1332 30.0001 35.625 30.0001C37.1169 30.0001 38.5476 29.4074 39.6025 28.3525C40.6574 27.2976 41.25 25.8669 41.25 24.3751V22.5001C41.2498 18.2682 39.8179 14.161 37.1874 10.8461C34.5569 7.53115 30.8823 5.2036 26.7612 4.24186C22.6401 3.28013 18.3149 3.74076 14.4888 5.54887C10.6627 7.35698 7.56076 10.4062 5.68738 14.2008C3.81399 17.9954 3.27933 22.3121 4.17033 26.449C5.06134 30.586 7.3256 34.2999 10.5949 36.9868C13.8643 39.6737 17.9465 41.1757 22.1776 41.2485C26.4088 41.3212 30.5402 39.9605 33.9 37.3876M30 22.5001C30 26.6422 26.6422 30.0001 22.5 30.0001C18.3579 30.0001 15 26.6422 15 22.5001C15 18.3579 18.3579 15.0001 22.5 15.0001C26.6422 15.0001 30 18.3579 30 22.5001Z" stroke="#1E1E1E" stroke-width="4" stroke-linecap="round" stroke-linejoin="round"/>
</svg>
