<svg width="45" height="46" viewBox="0 0 45 46" fill="none" xmlns="http://www.w3.org/2000/svg">
<path d="M6.55556 44H38.4444C40.9604 44 43 41.9107 43 39.3333V6.66667C43 4.08934 40.9604 2 38.4444 2H6.55556C4.03959 2 2 4.08934 2 6.66667V39.3333C2 41.9107 4.03959 44 6.55556 44ZM6.55556 44L31.6111 18.3333L43 30M17.9444 14.8333C17.9444 16.7663 16.4148 18.3333 14.5278 18.3333C12.6408 18.3333 11.1111 16.7663 11.1111 14.8333C11.1111 12.9003 12.6408 11.3333 14.5278 11.3333C16.4148 11.3333 17.9444 12.9003 17.9444 14.8333Z" stroke="#990000" stroke-width="4" stroke-linecap="round" stroke-linejoin="round"/>
</svg>
