<svg width="45" height="45" viewBox="0 0 45 45" fill="none" xmlns="http://www.w3.org/2000/svg">
<path d="M13.125 20.625V13.125C13.125 10.6386 14.1127 8.25403 15.8709 6.49587C17.629 4.73772 20.0136 3.75 22.5 3.75C24.9864 3.75 27.371 4.73772 29.1291 6.49587C30.8873 8.25403 31.875 10.6386 31.875 13.125V20.625M9.375 20.625H35.625C37.6961 20.625 39.375 22.3039 39.375 24.375V37.5C39.375 39.5711 37.6961 41.25 35.625 41.25H9.375C7.30393 41.25 5.625 39.5711 5.625 37.5V24.375C5.625 22.3039 7.30393 20.625 9.375 20.625Z" stroke="#1E1E1E" stroke-width="4" stroke-linecap="round" stroke-linejoin="round"/>
</svg>
