<svg width="45" height="45" viewBox="0 0 45 45" fill="none" xmlns="http://www.w3.org/2000/svg">
<path d="M41.2502 31.7249V37.3499C41.2523 37.8721 41.1453 38.389 40.9361 38.8675C40.7269 39.3459 40.4201 39.7754 40.0353 40.1284C39.6505 40.4815 39.1963 40.7502 38.7016 40.9175C38.2069 41.0848 37.6828 41.1469 37.1627 41.0999C31.393 40.473 25.8508 38.5015 20.9814 35.3437C16.4511 32.4649 12.6102 28.624 9.73143 24.0937C6.56264 19.2022 4.59064 13.6331 3.97518 7.83744C3.92832 7.31894 3.98995 6.79636 4.15612 6.30298C4.32229 5.8096 4.58938 5.35623 4.94037 4.97173C5.29136 4.58722 5.71856 4.28002 6.19479 4.06967C6.67101 3.85931 7.18582 3.75043 7.70643 3.74994H13.3314C14.2414 3.74098 15.1235 4.06321 15.8135 4.65656C16.5034 5.24991 16.9541 6.0739 17.0814 6.97494C17.3188 8.77506 17.7591 10.5426 18.3939 12.2437C18.6462 12.9148 18.7008 13.6442 18.5513 14.3453C18.4017 15.0465 18.0543 15.6901 17.5502 16.1999L15.1689 18.5812C17.8381 23.2753 21.7248 27.162 26.4189 29.8312L28.8002 27.4499C29.31 26.9458 29.9536 26.5984 30.6548 26.4489C31.356 26.2993 32.0853 26.3539 32.7564 26.6062C34.4576 27.241 36.2251 27.6813 38.0252 27.9187C38.936 28.0472 39.7678 28.506 40.3624 29.2077C40.9571 29.9095 41.273 30.8054 41.2502 31.7249Z" stroke="#1E1E1E" stroke-width="4" stroke-linecap="round" stroke-linejoin="round"/>
</svg>
